<svg xmlns="http://www.w3.org/2000/svg" version="1.1" xmlns:xlink="http://www.w3.org/1999/xlink" xmlns:svgjs="http://svgjs.dev/svgjs" width="1440" height="560" preserveAspectRatio="none" viewBox="0 0 1440 560"><g mask="url(&quot;#SvgjsMask1086&quot;)" fill="none"><rect width="1440" height="560" x="0" y="0" fill="url(&quot;#SvgjsLinearGradient1087&quot;)"></rect><path d="M-75.21 340.18L-75.21 340.18" stroke="rgba(201, 125, 96, 1)" stroke-width="1.5"></path><path d="M-75.21 340.18L78.03 376.5" stroke="rgba(201, 125, 96, 1)" stroke-width="1.5"></path><path d="M-75.21 340.18L-61.53 547.07" stroke="rgba(201, 125, 96, 1)" stroke-width="1.5"></path><path d="M-75.21 340.18L98.92 516.97" stroke="rgba(201, 125, 96, 1)" stroke-width="1.5"></path><path d="M-75.21 340.18L187.97 351.88" stroke="rgba(201, 125, 96, 1)" stroke-width="1.5"></path><path d="M-75.21 340.18L-59.64 643.05" stroke="rgba(201, 125, 96, 1)" stroke-width="1.5"></path><path d="M-61.53 547.07L-61.53 547.07" stroke="rgba(201, 125, 96, 1)" stroke-width="1.5"></path><path d="M-61.53 547.07L-59.64 643.05" stroke="rgba(201, 125, 96, 1)" stroke-width="1.5"></path><path d="M-61.53 547.07L98.92 516.97" stroke="rgba(201, 125, 96, 1)" stroke-width="1.5"></path><path d="M-59.64 643.05L-59.64 643.05" stroke="rgba(201, 125, 96, 1)" stroke-width="1.5"></path><path d="M-59.64 643.05L50.97 703.98" stroke="rgba(201, 125, 96, 1)" stroke-width="1.5"></path><path d="M78.03 376.5L78.03 376.5" stroke="rgba(201, 125, 96, 1)" stroke-width="1.5"></path><path d="M78.03 376.5L187.97 351.88" stroke="rgba(201, 125, 96, 1)" stroke-width="1.5"></path><path d="M78.03 376.5L98.92 516.97" stroke="rgba(201, 125, 96, 1)" stroke-width="1.5"></path><path d="M98.92 516.97L98.92 516.97" stroke="rgba(201, 125, 96, 1)" stroke-width="1.5"></path><path d="M98.92 516.97L214.6 532.2" stroke="rgba(201, 125, 96, 1)" stroke-width="1.5"></path><path d="M98.92 516.97L187.97 351.88" stroke="rgba(201, 125, 96, 1)" stroke-width="1.5"></path><path d="M98.92 516.97L50.97 703.98" stroke="rgba(201, 125, 96, 1)" stroke-width="1.5"></path><path d="M50.97 703.98L50.97 703.98" stroke="rgba(201, 125, 96, 1)" stroke-width="1.5"></path><path d="M50.97 703.98L-61.53 547.07" stroke="rgba(201, 125, 96, 1)" stroke-width="1.5"></path><path d="M50.97 703.98L259.66 670.15" stroke="rgba(201, 125, 96, 1)" stroke-width="1.5"></path><path d="M50.97 703.98L214.6 532.2" stroke="rgba(201, 125, 96, 1)" stroke-width="1.5"></path><path d="M50.97 703.98L78.03 376.5" stroke="rgba(201, 125, 96, 1)" stroke-width="1.5"></path><path d="M187.97 351.88L187.97 351.88" stroke="rgba(201, 125, 96, 1)" stroke-width="1.5"></path><path d="M187.97 351.88L214.6 532.2" stroke="rgba(201, 125, 96, 1)" stroke-width="1.5"></path><path d="M214.6 532.2L214.6 532.2" stroke="rgba(201, 125, 96, 1)" stroke-width="1.5"></path><path d="M214.6 532.2L259.66 670.15" stroke="rgba(201, 125, 96, 1)" stroke-width="1.5"></path><path d="M214.6 532.2L359.79 521.34" stroke="rgba(201, 125, 96, 1)" stroke-width="1.5"></path><path d="M214.6 532.2L78.03 376.5" stroke="rgba(201, 125, 96, 1)" stroke-width="1.5"></path><path d="M259.66 670.15L259.66 670.15" stroke="rgba(201, 125, 96, 1)" stroke-width="1.5"></path><path d="M259.66 670.15L407.99 709.95" stroke="rgba(201, 125, 96, 1)" stroke-width="1.5"></path><path d="M259.66 670.15L359.79 521.34" stroke="rgba(201, 125, 96, 1)" stroke-width="1.5"></path><path d="M388.13 338.53L388.13 338.53" stroke="rgba(201, 125, 96, 1)" stroke-width="1.5"></path><path d="M388.13 338.53L517.76 378.28" stroke="rgba(201, 125, 96, 1)" stroke-width="1.5"></path><path d="M388.13 338.53L359.79 521.34" stroke="rgba(201, 125, 96, 1)" stroke-width="1.5"></path><path d="M388.13 338.53L187.97 351.88" stroke="rgba(201, 125, 96, 1)" stroke-width="1.5"></path><path d="M388.13 338.53L515.9 503.41" stroke="rgba(201, 125, 96, 1)" stroke-width="1.5"></path><path d="M359.79 521.34L359.79 521.34" stroke="rgba(201, 125, 96, 1)" stroke-width="1.5"></path><path d="M359.79 521.34L515.9 503.41" stroke="rgba(201, 125, 96, 1)" stroke-width="1.5"></path><path d="M407.99 709.95L407.99 709.95" stroke="rgba(201, 125, 96, 1)" stroke-width="1.5"></path><path d="M407.99 709.95L513.83 640.93" stroke="rgba(201, 125, 96, 1)" stroke-width="1.5"></path><path d="M407.99 709.95L359.79 521.34" stroke="rgba(201, 125, 96, 1)" stroke-width="1.5"></path><path d="M407.99 709.95L638.29 688.4" stroke="rgba(201, 125, 96, 1)" stroke-width="1.5"></path><path d="M407.99 709.95L515.9 503.41" stroke="rgba(201, 125, 96, 1)" stroke-width="1.5"></path><path d="M517.76 378.28L517.76 378.28" stroke="rgba(201, 125, 96, 1)" stroke-width="1.5"></path><path d="M517.76 378.28L515.9 503.41" stroke="rgba(201, 125, 96, 1)" stroke-width="1.5"></path><path d="M517.76 378.28L705.16 356.57" stroke="rgba(201, 125, 96, 1)" stroke-width="1.5"></path><path d="M517.76 378.28L359.79 521.34" stroke="rgba(201, 125, 96, 1)" stroke-width="1.5"></path><path d="M515.9 503.41L515.9 503.41" stroke="rgba(201, 125, 96, 1)" stroke-width="1.5"></path><path d="M515.9 503.41L513.83 640.93" stroke="rgba(201, 125, 96, 1)" stroke-width="1.5"></path><path d="M515.9 503.41L704.88 488.3" stroke="rgba(201, 125, 96, 1)" stroke-width="1.5"></path><path d="M513.83 640.93L513.83 640.93" stroke="rgba(201, 125, 96, 1)" stroke-width="1.5"></path><path d="M513.83 640.93L638.29 688.4" stroke="rgba(201, 125, 96, 1)" stroke-width="1.5"></path><path d="M513.83 640.93L359.79 521.34" stroke="rgba(201, 125, 96, 1)" stroke-width="1.5"></path><path d="M513.83 640.93L704.88 488.3" stroke="rgba(201, 125, 96, 1)" stroke-width="1.5"></path><path d="M705.43 213.63L705.43 213.63" stroke="rgba(201, 125, 96, 1)" stroke-width="1.5"></path><path d="M705.43 213.63L831.16 190.18" stroke="rgba(201, 125, 96, 1)" stroke-width="1.5"></path><path d="M705.43 213.63L705.16 356.57" stroke="rgba(201, 125, 96, 1)" stroke-width="1.5"></path><path d="M705.16 356.57L705.16 356.57" stroke="rgba(201, 125, 96, 1)" stroke-width="1.5"></path><path d="M705.16 356.57L704.88 488.3" stroke="rgba(201, 125, 96, 1)" stroke-width="1.5"></path><path d="M704.88 488.3L704.88 488.3" stroke="rgba(201, 125, 96, 1)" stroke-width="1.5"></path><path d="M704.88 488.3L813.56 503.59" stroke="rgba(201, 125, 96, 1)" stroke-width="1.5"></path><path d="M704.88 488.3L846.99 407.18" stroke="rgba(201, 125, 96, 1)" stroke-width="1.5"></path><path d="M704.88 488.3L804.74 663.23" stroke="rgba(201, 125, 96, 1)" stroke-width="1.5"></path><path d="M638.29 688.4L638.29 688.4" stroke="rgba(201, 125, 96, 1)" stroke-width="1.5"></path><path d="M638.29 688.4L804.74 663.23" stroke="rgba(201, 125, 96, 1)" stroke-width="1.5"></path><path d="M638.29 688.4L704.88 488.3" stroke="rgba(201, 125, 96, 1)" stroke-width="1.5"></path><path d="M638.29 688.4L515.9 503.41" stroke="rgba(201, 125, 96, 1)" stroke-width="1.5"></path><path d="M638.29 688.4L813.56 503.59" stroke="rgba(201, 125, 96, 1)" stroke-width="1.5"></path><path d="M831.16 190.18L831.16 190.18" stroke="rgba(201, 125, 96, 1)" stroke-width="1.5"></path><path d="M831.16 190.18L961.63 241.37" stroke="rgba(201, 125, 96, 1)" stroke-width="1.5"></path><path d="M846.99 407.18L846.99 407.18" stroke="rgba(201, 125, 96, 1)" stroke-width="1.5"></path><path d="M846.99 407.18L813.56 503.59" stroke="rgba(201, 125, 96, 1)" stroke-width="1.5"></path><path d="M846.99 407.18L943.75 364.61" stroke="rgba(201, 125, 96, 1)" stroke-width="1.5"></path><path d="M846.99 407.18L705.16 356.57" stroke="rgba(201, 125, 96, 1)" stroke-width="1.5"></path><path d="M846.99 407.18L987.94 498.15" stroke="rgba(201, 125, 96, 1)" stroke-width="1.5"></path><path d="M846.99 407.18L961.63 241.37" stroke="rgba(201, 125, 96, 1)" stroke-width="1.5"></path><path d="M813.56 503.59L813.56 503.59" stroke="rgba(201, 125, 96, 1)" stroke-width="1.5"></path><path d="M813.56 503.59L804.74 663.23" stroke="rgba(201, 125, 96, 1)" stroke-width="1.5"></path><path d="M804.74 663.23L804.74 663.23" stroke="rgba(201, 125, 96, 1)" stroke-width="1.5"></path><path d="M804.74 663.23L969 681.37" stroke="rgba(201, 125, 96, 1)" stroke-width="1.5"></path><path d="M947.23 -101.67L947.23 -101.67" stroke="rgba(201, 125, 96, 1)" stroke-width="1.5"></path><path d="M947.23 -101.67L998.36 46.11" stroke="rgba(201, 125, 96, 1)" stroke-width="1.5"></path><path d="M947.23 -101.67L1092.17 50.7" stroke="rgba(201, 125, 96, 1)" stroke-width="1.5"></path><path d="M998.36 46.11L998.36 46.11" stroke="rgba(201, 125, 96, 1)" stroke-width="1.5"></path><path d="M998.36 46.11L1092.17 50.7" stroke="rgba(201, 125, 96, 1)" stroke-width="1.5"></path><path d="M998.36 46.11L961.63 241.37" stroke="rgba(201, 125, 96, 1)" stroke-width="1.5"></path><path d="M998.36 46.11L831.16 190.18" stroke="rgba(201, 125, 96, 1)" stroke-width="1.5"></path><path d="M998.36 46.11L1113.67 240.27" stroke="rgba(201, 125, 96, 1)" stroke-width="1.5"></path><path d="M961.63 241.37L961.63 241.37" stroke="rgba(201, 125, 96, 1)" stroke-width="1.5"></path><path d="M961.63 241.37L943.75 364.61" stroke="rgba(201, 125, 96, 1)" stroke-width="1.5"></path><path d="M961.63 241.37L1113.67 240.27" stroke="rgba(201, 125, 96, 1)" stroke-width="1.5"></path><path d="M961.63 241.37L1090.31 371.32" stroke="rgba(201, 125, 96, 1)" stroke-width="1.5"></path><path d="M943.75 364.61L943.75 364.61" stroke="rgba(201, 125, 96, 1)" stroke-width="1.5"></path><path d="M943.75 364.61L987.94 498.15" stroke="rgba(201, 125, 96, 1)" stroke-width="1.5"></path><path d="M987.94 498.15L987.94 498.15" stroke="rgba(201, 125, 96, 1)" stroke-width="1.5"></path><path d="M987.94 498.15L1136.11 520.39" stroke="rgba(201, 125, 96, 1)" stroke-width="1.5"></path><path d="M987.94 498.15L1090.31 371.32" stroke="rgba(201, 125, 96, 1)" stroke-width="1.5"></path><path d="M969 681.37L969 681.37" stroke="rgba(201, 125, 96, 1)" stroke-width="1.5"></path><path d="M969 681.37L1147.18 644.08" stroke="rgba(201, 125, 96, 1)" stroke-width="1.5"></path><path d="M969 681.37L987.94 498.15" stroke="rgba(201, 125, 96, 1)" stroke-width="1.5"></path><path d="M1092.17 50.7L1092.17 50.7" stroke="rgba(201, 125, 96, 1)" stroke-width="1.5"></path><path d="M1092.17 50.7L1113.67 240.27" stroke="rgba(201, 125, 96, 1)" stroke-width="1.5"></path><path d="M1092.17 50.7L1248.73 -73.28" stroke="rgba(201, 125, 96, 1)" stroke-width="1.5"></path><path d="M1092.17 50.7L1303.1 110.32" stroke="rgba(201, 125, 96, 1)" stroke-width="1.5"></path><path d="M1113.67 240.27L1113.67 240.27" stroke="rgba(201, 125, 96, 1)" stroke-width="1.5"></path><path d="M1113.67 240.27L1090.31 371.32" stroke="rgba(201, 125, 96, 1)" stroke-width="1.5"></path><path d="M1113.67 240.27L1271.08 235.65" stroke="rgba(201, 125, 96, 1)" stroke-width="1.5"></path><path d="M1090.31 371.32L1090.31 371.32" stroke="rgba(201, 125, 96, 1)" stroke-width="1.5"></path><path d="M1090.31 371.32L943.75 364.61" stroke="rgba(201, 125, 96, 1)" stroke-width="1.5"></path><path d="M1136.11 520.39L1136.11 520.39" stroke="rgba(201, 125, 96, 1)" stroke-width="1.5"></path><path d="M1136.11 520.39L1147.18 644.08" stroke="rgba(201, 125, 96, 1)" stroke-width="1.5"></path><path d="M1136.11 520.39L1258.98 549.89" stroke="rgba(201, 125, 96, 1)" stroke-width="1.5"></path><path d="M1136.11 520.39L1090.31 371.32" stroke="rgba(201, 125, 96, 1)" stroke-width="1.5"></path><path d="M1136.11 520.39L1245.02 646.14" stroke="rgba(201, 125, 96, 1)" stroke-width="1.5"></path><path d="M1136.11 520.39L1274.35 367.39" stroke="rgba(201, 125, 96, 1)" stroke-width="1.5"></path><path d="M1147.18 644.08L1147.18 644.08" stroke="rgba(201, 125, 96, 1)" stroke-width="1.5"></path><path d="M1147.18 644.08L1245.02 646.14" stroke="rgba(201, 125, 96, 1)" stroke-width="1.5"></path><path d="M1147.18 644.08L1258.98 549.89" stroke="rgba(201, 125, 96, 1)" stroke-width="1.5"></path><path d="M1147.18 644.08L987.94 498.15" stroke="rgba(201, 125, 96, 1)" stroke-width="1.5"></path><path d="M1147.18 644.08L1090.31 371.32" stroke="rgba(201, 125, 96, 1)" stroke-width="1.5"></path><path d="M1248.73 -73.28L1248.73 -73.28" stroke="rgba(201, 125, 96, 1)" stroke-width="1.5"></path><path d="M1248.73 -73.28L1399.53 -104.8" stroke="rgba(201, 125, 96, 1)" stroke-width="1.5"></path><path d="M1248.73 -73.28L1303.1 110.32" stroke="rgba(201, 125, 96, 1)" stroke-width="1.5"></path><path d="M1303.1 110.32L1303.1 110.32" stroke="rgba(201, 125, 96, 1)" stroke-width="1.5"></path><path d="M1303.1 110.32L1397.6 102.09" stroke="rgba(201, 125, 96, 1)" stroke-width="1.5"></path><path d="M1303.1 110.32L1271.08 235.65" stroke="rgba(201, 125, 96, 1)" stroke-width="1.5"></path><path d="M1303.1 110.32L1410.65 252.89" stroke="rgba(201, 125, 96, 1)" stroke-width="1.5"></path><path d="M1271.08 235.65L1271.08 235.65" stroke="rgba(201, 125, 96, 1)" stroke-width="1.5"></path><path d="M1271.08 235.65L1274.35 367.39" stroke="rgba(201, 125, 96, 1)" stroke-width="1.5"></path><path d="M1271.08 235.65L1410.65 252.89" stroke="rgba(201, 125, 96, 1)" stroke-width="1.5"></path><path d="M1271.08 235.65L1393.12 350.27" stroke="rgba(201, 125, 96, 1)" stroke-width="1.5"></path><path d="M1274.35 367.39L1274.35 367.39" stroke="rgba(201, 125, 96, 1)" stroke-width="1.5"></path><path d="M1274.35 367.39L1393.12 350.27" stroke="rgba(201, 125, 96, 1)" stroke-width="1.5"></path><path d="M1274.35 367.39L1410.65 252.89" stroke="rgba(201, 125, 96, 1)" stroke-width="1.5"></path><path d="M1274.35 367.39L1258.98 549.89" stroke="rgba(201, 125, 96, 1)" stroke-width="1.5"></path><path d="M1258.98 549.89L1258.98 549.89" stroke="rgba(201, 125, 96, 1)" stroke-width="1.5"></path><path d="M1258.98 549.89L1245.02 646.14" stroke="rgba(201, 125, 96, 1)" stroke-width="1.5"></path><path d="M1245.02 646.14L1245.02 646.14" stroke="rgba(201, 125, 96, 1)" stroke-width="1.5"></path><path d="M1399.53 -104.8L1399.53 -104.8" stroke="rgba(201, 125, 96, 1)" stroke-width="1.5"></path><path d="M1399.53 -104.8L1556.73 -85.38" stroke="rgba(201, 125, 96, 1)" stroke-width="1.5"></path><path d="M1399.53 -104.8L1397.6 102.09" stroke="rgba(201, 125, 96, 1)" stroke-width="1.5"></path><path d="M1397.6 102.09L1397.6 102.09" stroke="rgba(201, 125, 96, 1)" stroke-width="1.5"></path><path d="M1410.65 252.89L1410.65 252.89" stroke="rgba(201, 125, 96, 1)" stroke-width="1.5"></path><path d="M1410.65 252.89L1393.12 350.27" stroke="rgba(201, 125, 96, 1)" stroke-width="1.5"></path><path d="M1410.65 252.89L1397.6 102.09" stroke="rgba(201, 125, 96, 1)" stroke-width="1.5"></path><path d="M1410.65 252.89L1606.95 231.75" stroke="rgba(201, 125, 96, 1)" stroke-width="1.5"></path><path d="M1393.12 350.27L1393.12 350.27" stroke="rgba(201, 125, 96, 1)" stroke-width="1.5"></path><path d="M1393.12 350.27L1456.47 515.75" stroke="rgba(201, 125, 96, 1)" stroke-width="1.5"></path><path d="M1393.12 350.27L1596.95 353.93" stroke="rgba(201, 125, 96, 1)" stroke-width="1.5"></path><path d="M1456.47 515.75L1456.47 515.75" stroke="rgba(201, 125, 96, 1)" stroke-width="1.5"></path><path d="M1456.47 515.75L1549.59 548.8" stroke="rgba(201, 125, 96, 1)" stroke-width="1.5"></path><path d="M1456.47 515.75L1441.98 662.59" stroke="rgba(201, 125, 96, 1)" stroke-width="1.5"></path><path d="M1441.98 662.59L1441.98 662.59" stroke="rgba(201, 125, 96, 1)" stroke-width="1.5"></path><path d="M1556.73 -85.38L1556.73 -85.38" stroke="rgba(201, 125, 96, 1)" stroke-width="1.5"></path><path d="M1556.73 -85.38L1549.31 109.97" stroke="rgba(201, 125, 96, 1)" stroke-width="1.5"></path><path d="M1556.73 -85.38L1397.6 102.09" stroke="rgba(201, 125, 96, 1)" stroke-width="1.5"></path><path d="M1556.73 -85.38L1248.73 -73.28" stroke="rgba(201, 125, 96, 1)" stroke-width="1.5"></path><path d="M1556.73 -85.38L1303.1 110.32" stroke="rgba(201, 125, 96, 1)" stroke-width="1.5"></path><path d="M1556.73 -85.38L1606.95 231.75" stroke="rgba(201, 125, 96, 1)" stroke-width="1.5"></path><path d="M1549.31 109.97L1549.31 109.97" stroke="rgba(201, 125, 96, 1)" stroke-width="1.5"></path><path d="M1549.31 109.97L1606.95 231.75" stroke="rgba(201, 125, 96, 1)" stroke-width="1.5"></path><path d="M1549.31 109.97L1397.6 102.09" stroke="rgba(201, 125, 96, 1)" stroke-width="1.5"></path><path d="M1606.95 231.75L1606.95 231.75" stroke="rgba(201, 125, 96, 1)" stroke-width="1.5"></path><path d="M1606.95 231.75L1596.95 353.93" stroke="rgba(201, 125, 96, 1)" stroke-width="1.5"></path><path d="M1596.95 353.93L1596.95 353.93" stroke="rgba(201, 125, 96, 1)" stroke-width="1.5"></path><path d="M1596.95 353.93L1549.59 548.8" stroke="rgba(201, 125, 96, 1)" stroke-width="1.5"></path><path d="M1596.95 353.93L1410.65 252.89" stroke="rgba(201, 125, 96, 1)" stroke-width="1.5"></path><path d="M1596.95 353.93L1456.47 515.75" stroke="rgba(201, 125, 96, 1)" stroke-width="1.5"></path><path d="M1596.95 353.93L1549.31 109.97" stroke="rgba(201, 125, 96, 1)" stroke-width="1.5"></path><path d="M1549.59 548.8L1549.59 548.8" stroke="rgba(201, 125, 96, 1)" stroke-width="1.5"></path><path d="M1549.59 548.8L1598.81 680.04" stroke="rgba(201, 125, 96, 1)" stroke-width="1.5"></path><path d="M1549.59 548.8L1441.98 662.59" stroke="rgba(201, 125, 96, 1)" stroke-width="1.5"></path><path d="M1598.81 680.04L1598.81 680.04" stroke="rgba(201, 125, 96, 1)" stroke-width="1.5"></path><path d="M1598.81 680.04L1441.98 662.59" stroke="rgba(201, 125, 96, 1)" stroke-width="1.5"></path><path d="M1598.81 680.04L1456.47 515.75" stroke="rgba(201, 125, 96, 1)" stroke-width="1.5"></path><path d="M1598.81 680.04L1596.95 353.93" stroke="rgba(201, 125, 96, 1)" stroke-width="1.5"></path><path d="M1598.81 680.04L1245.02 646.14" stroke="rgba(201, 125, 96, 1)" stroke-width="1.5"></path><circle r="5" cx="-75.21" cy="340.18" fill="rgba(201, 125, 96, 1)"></circle><circle r="5" cx="-61.53" cy="547.07" fill="rgba(201, 125, 96, 1)"></circle><circle r="5" cx="-59.64" cy="643.05" fill="rgba(201, 125, 96, 1)"></circle><circle r="5" cx="78.03" cy="376.5" fill="rgba(201, 125, 96, 1)"></circle><circle r="5" cx="98.92" cy="516.97" fill="rgba(201, 125, 96, 1)"></circle><circle r="5" cx="50.97" cy="703.98" fill="rgba(201, 125, 96, 1)"></circle><circle r="5" cx="187.97" cy="351.88" fill="rgba(201, 125, 96, 1)"></circle><circle r="5" cx="214.6" cy="532.2" fill="rgba(201, 125, 96, 1)"></circle><circle r="5" cx="259.66" cy="670.15" fill="rgba(201, 125, 96, 1)"></circle><circle r="5" cx="388.13" cy="338.53" fill="rgba(201, 125, 96, 1)"></circle><circle r="5" cx="359.79" cy="521.34" fill="rgba(201, 125, 96, 1)"></circle><circle r="5" cx="407.99" cy="709.95" fill="rgba(201, 125, 96, 1)"></circle><circle r="5" cx="517.76" cy="378.28" fill="rgba(201, 125, 96, 1)"></circle><circle r="5" cx="515.9" cy="503.41" fill="rgba(201, 125, 96, 1)"></circle><circle r="5" cx="513.83" cy="640.93" fill="rgba(201, 125, 96, 1)"></circle><circle r="5" cx="705.43" cy="213.63" fill="rgba(201, 125, 96, 1)"></circle><circle r="5" cx="705.16" cy="356.57" fill="rgba(201, 125, 96, 1)"></circle><circle r="5" cx="704.88" cy="488.3" fill="rgba(201, 125, 96, 1)"></circle><circle r="5" cx="638.29" cy="688.4" fill="rgba(201, 125, 96, 1)"></circle><circle r="5" cx="831.16" cy="190.18" fill="rgba(201, 125, 96, 1)"></circle><circle r="5" cx="846.99" cy="407.18" fill="rgba(201, 125, 96, 1)"></circle><circle r="5" cx="813.56" cy="503.59" fill="rgba(201, 125, 96, 1)"></circle><circle r="5" cx="804.74" cy="663.23" fill="rgba(201, 125, 96, 1)"></circle><circle r="5" cx="947.23" cy="-101.67" fill="rgba(201, 125, 96, 1)"></circle><circle r="5" cx="998.36" cy="46.11" fill="rgba(201, 125, 96, 1)"></circle><circle r="5" cx="961.63" cy="241.37" fill="rgba(201, 125, 96, 1)"></circle><circle r="5" cx="943.75" cy="364.61" fill="rgba(201, 125, 96, 1)"></circle><circle r="5" cx="987.94" cy="498.15" fill="rgba(201, 125, 96, 1)"></circle><circle r="5" cx="969" cy="681.37" fill="rgba(201, 125, 96, 1)"></circle><circle r="5" cx="1092.17" cy="50.7" fill="rgba(201, 125, 96, 1)"></circle><circle r="5" cx="1113.67" cy="240.27" fill="rgba(201, 125, 96, 1)"></circle><circle r="5" cx="1090.31" cy="371.32" fill="rgba(201, 125, 96, 1)"></circle><circle r="5" cx="1136.11" cy="520.39" fill="rgba(201, 125, 96, 1)"></circle><circle r="5" cx="1147.18" cy="644.08" fill="rgba(201, 125, 96, 1)"></circle><circle r="5" cx="1248.73" cy="-73.28" fill="rgba(201, 125, 96, 1)"></circle><circle r="5" cx="1303.1" cy="110.32" fill="rgba(201, 125, 96, 1)"></circle><circle r="5" cx="1271.08" cy="235.65" fill="rgba(201, 125, 96, 1)"></circle><circle r="5" cx="1274.35" cy="367.39" fill="rgba(201, 125, 96, 1)"></circle><circle r="5" cx="1258.98" cy="549.89" fill="rgba(201, 125, 96, 1)"></circle><circle r="5" cx="1245.02" cy="646.14" fill="rgba(201, 125, 96, 1)"></circle><circle r="5" cx="1399.53" cy="-104.8" fill="rgba(201, 125, 96, 1)"></circle><circle r="5" cx="1397.6" cy="102.09" fill="rgba(201, 125, 96, 1)"></circle><circle r="5" cx="1410.65" cy="252.89" fill="rgba(201, 125, 96, 1)"></circle><circle r="5" cx="1393.12" cy="350.27" fill="rgba(201, 125, 96, 1)"></circle><circle r="5" cx="1456.47" cy="515.75" fill="rgba(201, 125, 96, 1)"></circle><circle r="5" cx="1441.98" cy="662.59" fill="rgba(201, 125, 96, 1)"></circle><circle r="5" cx="1556.73" cy="-85.38" fill="rgba(201, 125, 96, 1)"></circle><circle r="5" cx="1549.31" cy="109.97" fill="rgba(201, 125, 96, 1)"></circle><circle r="5" cx="1606.95" cy="231.75" fill="rgba(201, 125, 96, 1)"></circle><circle r="5" cx="1596.95" cy="353.93" fill="rgba(201, 125, 96, 1)"></circle><circle r="5" cx="1549.59" cy="548.8" fill="rgba(201, 125, 96, 1)"></circle><circle r="5" cx="1598.81" cy="680.04" fill="rgba(201, 125, 96, 1)"></circle><path d="M-97.45 677.12L-97.45 677.12" stroke="hsl(16.600000000000023, 49.3%, 75.7%)" stroke-width="1.5"></path><path d="M-97.45 677.12L-83.9 514.1" stroke="hsl(16.600000000000023, 49.3%, 75.7%)" stroke-width="1.5"></path><path d="M-97.45 677.12L98.14 655.61" stroke="hsl(16.600000000000023, 49.3%, 75.7%)" stroke-width="1.5"></path><path d="M-97.45 677.12L60.39 558" stroke="hsl(16.600000000000023, 49.3%, 75.7%)" stroke-width="1.5"></path><path d="M-97.45 677.12L216.97 665.98" stroke="hsl(16.600000000000023, 49.3%, 75.7%)" stroke-width="1.5"></path><path d="M-97.45 677.12L241.57 500.73" stroke="hsl(16.600000000000023, 49.3%, 75.7%)" stroke-width="1.5"></path><path d="M60.39 558L60.39 558" stroke="hsl(16.600000000000023, 49.3%, 75.7%)" stroke-width="1.5"></path><path d="M60.39 558L98.14 655.61" stroke="hsl(16.600000000000023, 49.3%, 75.7%)" stroke-width="1.5"></path><path d="M60.39 558L-83.9 514.1" stroke="hsl(16.600000000000023, 49.3%, 75.7%)" stroke-width="1.5"></path><path d="M60.39 558L241.57 500.73" stroke="hsl(16.600000000000023, 49.3%, 75.7%)" stroke-width="1.5"></path><path d="M60.39 558L216.97 665.98" stroke="hsl(16.600000000000023, 49.3%, 75.7%)" stroke-width="1.5"></path><path d="M241.57 500.73L241.57 500.73" stroke="hsl(16.600000000000023, 49.3%, 75.7%)" stroke-width="1.5"></path><path d="M241.57 500.73L385.09 552.78" stroke="hsl(16.600000000000023, 49.3%, 75.7%)" stroke-width="1.5"></path><path d="M241.57 500.73L216.97 665.98" stroke="hsl(16.600000000000023, 49.3%, 75.7%)" stroke-width="1.5"></path><path d="M241.57 500.73L98.14 655.61" stroke="hsl(16.600000000000023, 49.3%, 75.7%)" stroke-width="1.5"></path><path d="M1265.42 259.03L1265.42 259.03" stroke="hsl(16.600000000000023, 49.3%, 75.7%)" stroke-width="1.5"></path><path d="M1265.42 259.03L1387.92 196.21" stroke="hsl(16.600000000000023, 49.3%, 75.7%)" stroke-width="1.5"></path><path d="M1265.42 259.03L1298.7 397.44" stroke="hsl(16.600000000000023, 49.3%, 75.7%)" stroke-width="1.5"></path><path d="M1265.42 259.03L1285.8 101.44" stroke="hsl(16.600000000000023, 49.3%, 75.7%)" stroke-width="1.5"></path><path d="M1265.42 259.03L1130.78 368.15" stroke="hsl(16.600000000000023, 49.3%, 75.7%)" stroke-width="1.5"></path><path d="M1265.42 259.03L1094.43 228.39" stroke="hsl(16.600000000000023, 49.3%, 75.7%)" stroke-width="1.5"></path><path d="M1398.91 -63.2L1398.91 -63.2" stroke="hsl(16.600000000000023, 49.3%, 75.7%)" stroke-width="1.5"></path><path d="M1398.91 -63.2L1443.73 65.46" stroke="hsl(16.600000000000023, 49.3%, 75.7%)" stroke-width="1.5"></path><path d="M1398.91 -63.2L1242.78 -89.13" stroke="hsl(16.600000000000023, 49.3%, 75.7%)" stroke-width="1.5"></path><path d="M1398.91 -63.2L1552.79 -102.57" stroke="hsl(16.600000000000023, 49.3%, 75.7%)" stroke-width="1.5"></path><path d="M1398.91 -63.2L1285.8 101.44" stroke="hsl(16.600000000000023, 49.3%, 75.7%)" stroke-width="1.5"></path><path d="M1443.73 65.46L1443.73 65.46" stroke="hsl(16.600000000000023, 49.3%, 75.7%)" stroke-width="1.5"></path><path d="M1443.73 65.46L1575.69 101.2" stroke="hsl(16.600000000000023, 49.3%, 75.7%)" stroke-width="1.5"></path><path d="M1443.73 65.46L1387.92 196.21" stroke="hsl(16.600000000000023, 49.3%, 75.7%)" stroke-width="1.5"></path><path d="M1460.38 513.61L1460.38 513.61" stroke="hsl(16.600000000000023, 49.3%, 75.7%)" stroke-width="1.5"></path><path d="M1460.38 513.61L1585.16 539.71" stroke="hsl(16.600000000000023, 49.3%, 75.7%)" stroke-width="1.5"></path><path d="M1460.38 513.61L1460.29 364.09" stroke="hsl(16.600000000000023, 49.3%, 75.7%)" stroke-width="1.5"></path><path d="M1458.23 693.89L1458.23 693.89" stroke="hsl(16.600000000000023, 49.3%, 75.7%)" stroke-width="1.5"></path><path d="M1458.23 693.89L1604.62 675.35" stroke="hsl(16.600000000000023, 49.3%, 75.7%)" stroke-width="1.5"></path><path d="M1458.23 693.89L1460.38 513.61" stroke="hsl(16.600000000000023, 49.3%, 75.7%)" stroke-width="1.5"></path><path d="M1458.23 693.89L1264.19 647.47" stroke="hsl(16.600000000000023, 49.3%, 75.7%)" stroke-width="1.5"></path><path d="M1458.23 693.89L1585.16 539.71" stroke="hsl(16.600000000000023, 49.3%, 75.7%)" stroke-width="1.5"></path><path d="M1458.23 693.89L1240.71 498.01" stroke="hsl(16.600000000000023, 49.3%, 75.7%)" stroke-width="1.5"></path><path d="M-83.9 514.1L-83.9 514.1" stroke="hsl(16.600000000000023, 49.3%, 75.7%)" stroke-width="1.5"></path><path d="M98.14 655.61L98.14 655.61" stroke="hsl(16.600000000000023, 49.3%, 75.7%)" stroke-width="1.5"></path><path d="M98.14 655.61L216.97 665.98" stroke="hsl(16.600000000000023, 49.3%, 75.7%)" stroke-width="1.5"></path><path d="M98.14 655.61L-83.9 514.1" stroke="hsl(16.600000000000023, 49.3%, 75.7%)" stroke-width="1.5"></path><path d="M98.14 655.61L398.38 651.97" stroke="hsl(16.600000000000023, 49.3%, 75.7%)" stroke-width="1.5"></path><path d="M216.97 665.98L216.97 665.98" stroke="hsl(16.600000000000023, 49.3%, 75.7%)" stroke-width="1.5"></path><path d="M216.97 665.98L398.38 651.97" stroke="hsl(16.600000000000023, 49.3%, 75.7%)" stroke-width="1.5"></path><path d="M385.09 552.78L385.09 552.78" stroke="hsl(16.600000000000023, 49.3%, 75.7%)" stroke-width="1.5"></path><path d="M385.09 552.78L398.38 651.97" stroke="hsl(16.600000000000023, 49.3%, 75.7%)" stroke-width="1.5"></path><path d="M385.09 552.78L533.87 551.8" stroke="hsl(16.600000000000023, 49.3%, 75.7%)" stroke-width="1.5"></path><path d="M385.09 552.78L530.86 670.82" stroke="hsl(16.600000000000023, 49.3%, 75.7%)" stroke-width="1.5"></path><path d="M398.38 651.97L398.38 651.97" stroke="hsl(16.600000000000023, 49.3%, 75.7%)" stroke-width="1.5"></path><path d="M398.38 651.97L530.86 670.82" stroke="hsl(16.600000000000023, 49.3%, 75.7%)" stroke-width="1.5"></path><path d="M398.38 651.97L533.87 551.8" stroke="hsl(16.600000000000023, 49.3%, 75.7%)" stroke-width="1.5"></path><path d="M398.38 651.97L241.57 500.73" stroke="hsl(16.600000000000023, 49.3%, 75.7%)" stroke-width="1.5"></path><path d="M533.87 551.8L533.87 551.8" stroke="hsl(16.600000000000023, 49.3%, 75.7%)" stroke-width="1.5"></path><path d="M533.87 551.8L530.86 670.82" stroke="hsl(16.600000000000023, 49.3%, 75.7%)" stroke-width="1.5"></path><path d="M530.86 670.82L530.86 670.82" stroke="hsl(16.600000000000023, 49.3%, 75.7%)" stroke-width="1.5"></path><path d="M711.12 639.73L711.12 639.73" stroke="hsl(16.600000000000023, 49.3%, 75.7%)" stroke-width="1.5"></path><path d="M711.12 639.73L805.99 709.86" stroke="hsl(16.600000000000023, 49.3%, 75.7%)" stroke-width="1.5"></path><path d="M711.12 639.73L798.57 490.49" stroke="hsl(16.600000000000023, 49.3%, 75.7%)" stroke-width="1.5"></path><path d="M711.12 639.73L530.86 670.82" stroke="hsl(16.600000000000023, 49.3%, 75.7%)" stroke-width="1.5"></path><path d="M711.12 639.73L533.87 551.8" stroke="hsl(16.600000000000023, 49.3%, 75.7%)" stroke-width="1.5"></path><path d="M832 373.23L832 373.23" stroke="hsl(16.600000000000023, 49.3%, 75.7%)" stroke-width="1.5"></path><path d="M832 373.23L943.18 350.92" stroke="hsl(16.600000000000023, 49.3%, 75.7%)" stroke-width="1.5"></path><path d="M832 373.23L798.57 490.49" stroke="hsl(16.600000000000023, 49.3%, 75.7%)" stroke-width="1.5"></path><path d="M832 373.23L957.94 253.31" stroke="hsl(16.600000000000023, 49.3%, 75.7%)" stroke-width="1.5"></path><path d="M832 373.23L999.79 549.21" stroke="hsl(16.600000000000023, 49.3%, 75.7%)" stroke-width="1.5"></path><path d="M832 373.23L711.12 639.73" stroke="hsl(16.600000000000023, 49.3%, 75.7%)" stroke-width="1.5"></path><path d="M798.57 490.49L798.57 490.49" stroke="hsl(16.600000000000023, 49.3%, 75.7%)" stroke-width="1.5"></path><path d="M798.57 490.49L943.18 350.92" stroke="hsl(16.600000000000023, 49.3%, 75.7%)" stroke-width="1.5"></path><path d="M798.57 490.49L999.79 549.21" stroke="hsl(16.600000000000023, 49.3%, 75.7%)" stroke-width="1.5"></path><path d="M805.99 709.86L805.99 709.86" stroke="hsl(16.600000000000023, 49.3%, 75.7%)" stroke-width="1.5"></path><path d="M805.99 709.86L1004.68 704.29" stroke="hsl(16.600000000000023, 49.3%, 75.7%)" stroke-width="1.5"></path><path d="M805.99 709.86L798.57 490.49" stroke="hsl(16.600000000000023, 49.3%, 75.7%)" stroke-width="1.5"></path><path d="M957.94 253.31L957.94 253.31" stroke="hsl(16.600000000000023, 49.3%, 75.7%)" stroke-width="1.5"></path><path d="M957.94 253.31L943.18 350.92" stroke="hsl(16.600000000000023, 49.3%, 75.7%)" stroke-width="1.5"></path><path d="M943.18 350.92L943.18 350.92" stroke="hsl(16.600000000000023, 49.3%, 75.7%)" stroke-width="1.5"></path><path d="M943.18 350.92L1130.78 368.15" stroke="hsl(16.600000000000023, 49.3%, 75.7%)" stroke-width="1.5"></path><path d="M943.18 350.92L1094.43 228.39" stroke="hsl(16.600000000000023, 49.3%, 75.7%)" stroke-width="1.5"></path><path d="M999.79 549.21L999.79 549.21" stroke="hsl(16.600000000000023, 49.3%, 75.7%)" stroke-width="1.5"></path><path d="M999.79 549.21L1004.68 704.29" stroke="hsl(16.600000000000023, 49.3%, 75.7%)" stroke-width="1.5"></path><path d="M999.79 549.21L1130 708.29" stroke="hsl(16.600000000000023, 49.3%, 75.7%)" stroke-width="1.5"></path><path d="M999.79 549.21L943.18 350.92" stroke="hsl(16.600000000000023, 49.3%, 75.7%)" stroke-width="1.5"></path><path d="M1004.68 704.29L1004.68 704.29" stroke="hsl(16.600000000000023, 49.3%, 75.7%)" stroke-width="1.5"></path><path d="M1004.68 704.29L1130 708.29" stroke="hsl(16.600000000000023, 49.3%, 75.7%)" stroke-width="1.5"></path><path d="M1004.68 704.29L1264.19 647.47" stroke="hsl(16.600000000000023, 49.3%, 75.7%)" stroke-width="1.5"></path><path d="M1004.68 704.29L798.57 490.49" stroke="hsl(16.600000000000023, 49.3%, 75.7%)" stroke-width="1.5"></path><path d="M1094.43 228.39L1094.43 228.39" stroke="hsl(16.600000000000023, 49.3%, 75.7%)" stroke-width="1.5"></path><path d="M1094.43 228.39L957.94 253.31" stroke="hsl(16.600000000000023, 49.3%, 75.7%)" stroke-width="1.5"></path><path d="M1094.43 228.39L1130.78 368.15" stroke="hsl(16.600000000000023, 49.3%, 75.7%)" stroke-width="1.5"></path><path d="M1094.43 228.39L1285.8 101.44" stroke="hsl(16.600000000000023, 49.3%, 75.7%)" stroke-width="1.5"></path><path d="M1094.43 228.39L1298.7 397.44" stroke="hsl(16.600000000000023, 49.3%, 75.7%)" stroke-width="1.5"></path><path d="M1130.78 368.15L1130.78 368.15" stroke="hsl(16.600000000000023, 49.3%, 75.7%)" stroke-width="1.5"></path><path d="M1130.78 368.15L1240.71 498.01" stroke="hsl(16.600000000000023, 49.3%, 75.7%)" stroke-width="1.5"></path><path d="M1130.78 368.15L1298.7 397.44" stroke="hsl(16.600000000000023, 49.3%, 75.7%)" stroke-width="1.5"></path><path d="M1130 708.29L1130 708.29" stroke="hsl(16.600000000000023, 49.3%, 75.7%)" stroke-width="1.5"></path><path d="M1130 708.29L1264.19 647.47" stroke="hsl(16.600000000000023, 49.3%, 75.7%)" stroke-width="1.5"></path><path d="M1130 708.29L1240.71 498.01" stroke="hsl(16.600000000000023, 49.3%, 75.7%)" stroke-width="1.5"></path><path d="M1130 708.29L805.99 709.86" stroke="hsl(16.600000000000023, 49.3%, 75.7%)" stroke-width="1.5"></path><path d="M1242.78 -89.13L1242.78 -89.13" stroke="hsl(16.600000000000023, 49.3%, 75.7%)" stroke-width="1.5"></path><path d="M1242.78 -89.13L1285.8 101.44" stroke="hsl(16.600000000000023, 49.3%, 75.7%)" stroke-width="1.5"></path><path d="M1242.78 -89.13L1443.73 65.46" stroke="hsl(16.600000000000023, 49.3%, 75.7%)" stroke-width="1.5"></path><path d="M1242.78 -89.13L1552.79 -102.57" stroke="hsl(16.600000000000023, 49.3%, 75.7%)" stroke-width="1.5"></path><path d="M1242.78 -89.13L1387.92 196.21" stroke="hsl(16.600000000000023, 49.3%, 75.7%)" stroke-width="1.5"></path><path d="M1242.78 -89.13L1265.42 259.03" stroke="hsl(16.600000000000023, 49.3%, 75.7%)" stroke-width="1.5"></path><path d="M1285.8 101.44L1285.8 101.44" stroke="hsl(16.600000000000023, 49.3%, 75.7%)" stroke-width="1.5"></path><path d="M1285.8 101.44L1387.92 196.21" stroke="hsl(16.600000000000023, 49.3%, 75.7%)" stroke-width="1.5"></path><path d="M1285.8 101.44L1443.73 65.46" stroke="hsl(16.600000000000023, 49.3%, 75.7%)" stroke-width="1.5"></path><path d="M1298.7 397.44L1298.7 397.44" stroke="hsl(16.600000000000023, 49.3%, 75.7%)" stroke-width="1.5"></path><path d="M1298.7 397.44L1240.71 498.01" stroke="hsl(16.600000000000023, 49.3%, 75.7%)" stroke-width="1.5"></path><path d="M1298.7 397.44L1460.29 364.09" stroke="hsl(16.600000000000023, 49.3%, 75.7%)" stroke-width="1.5"></path><path d="M1298.7 397.44L1460.38 513.61" stroke="hsl(16.600000000000023, 49.3%, 75.7%)" stroke-width="1.5"></path><path d="M1240.71 498.01L1240.71 498.01" stroke="hsl(16.600000000000023, 49.3%, 75.7%)" stroke-width="1.5"></path><path d="M1240.71 498.01L1264.19 647.47" stroke="hsl(16.600000000000023, 49.3%, 75.7%)" stroke-width="1.5"></path><path d="M1240.71 498.01L1460.38 513.61" stroke="hsl(16.600000000000023, 49.3%, 75.7%)" stroke-width="1.5"></path><path d="M1240.71 498.01L1265.42 259.03" stroke="hsl(16.600000000000023, 49.3%, 75.7%)" stroke-width="1.5"></path><path d="M1264.19 647.47L1264.19 647.47" stroke="hsl(16.600000000000023, 49.3%, 75.7%)" stroke-width="1.5"></path><path d="M1387.92 196.21L1387.92 196.21" stroke="hsl(16.600000000000023, 49.3%, 75.7%)" stroke-width="1.5"></path><path d="M1460.29 364.09L1460.29 364.09" stroke="hsl(16.600000000000023, 49.3%, 75.7%)" stroke-width="1.5"></path><path d="M1552.79 -102.57L1552.79 -102.57" stroke="hsl(16.600000000000023, 49.3%, 75.7%)" stroke-width="1.5"></path><path d="M1552.79 -102.57L1443.73 65.46" stroke="hsl(16.600000000000023, 49.3%, 75.7%)" stroke-width="1.5"></path><path d="M1552.79 -102.57L1575.69 101.2" stroke="hsl(16.600000000000023, 49.3%, 75.7%)" stroke-width="1.5"></path><path d="M1552.79 -102.57L1541.73 212.6" stroke="hsl(16.600000000000023, 49.3%, 75.7%)" stroke-width="1.5"></path><path d="M1575.69 101.2L1575.69 101.2" stroke="hsl(16.600000000000023, 49.3%, 75.7%)" stroke-width="1.5"></path><path d="M1575.69 101.2L1541.73 212.6" stroke="hsl(16.600000000000023, 49.3%, 75.7%)" stroke-width="1.5"></path><path d="M1575.69 101.2L1387.92 196.21" stroke="hsl(16.600000000000023, 49.3%, 75.7%)" stroke-width="1.5"></path><path d="M1575.69 101.2L1398.91 -63.2" stroke="hsl(16.600000000000023, 49.3%, 75.7%)" stroke-width="1.5"></path><path d="M1575.69 101.2L1460.29 364.09" stroke="hsl(16.600000000000023, 49.3%, 75.7%)" stroke-width="1.5"></path><path d="M1541.73 212.6L1541.73 212.6" stroke="hsl(16.600000000000023, 49.3%, 75.7%)" stroke-width="1.5"></path><path d="M1541.73 212.6L1387.92 196.21" stroke="hsl(16.600000000000023, 49.3%, 75.7%)" stroke-width="1.5"></path><path d="M1541.73 212.6L1460.29 364.09" stroke="hsl(16.600000000000023, 49.3%, 75.7%)" stroke-width="1.5"></path><path d="M1541.73 212.6L1443.73 65.46" stroke="hsl(16.600000000000023, 49.3%, 75.7%)" stroke-width="1.5"></path><path d="M1541.73 212.6L1609.65 400.34" stroke="hsl(16.600000000000023, 49.3%, 75.7%)" stroke-width="1.5"></path><path d="M1541.73 212.6L1285.8 101.44" stroke="hsl(16.600000000000023, 49.3%, 75.7%)" stroke-width="1.5"></path><path d="M1609.65 400.34L1609.65 400.34" stroke="hsl(16.600000000000023, 49.3%, 75.7%)" stroke-width="1.5"></path><path d="M1609.65 400.34L1585.16 539.71" stroke="hsl(16.600000000000023, 49.3%, 75.7%)" stroke-width="1.5"></path><path d="M1609.65 400.34L1460.29 364.09" stroke="hsl(16.600000000000023, 49.3%, 75.7%)" stroke-width="1.5"></path><path d="M1585.16 539.71L1585.16 539.71" stroke="hsl(16.600000000000023, 49.3%, 75.7%)" stroke-width="1.5"></path><path d="M1585.16 539.71L1604.62 675.35" stroke="hsl(16.600000000000023, 49.3%, 75.7%)" stroke-width="1.5"></path><path d="M1604.62 675.35L1604.62 675.35" stroke="hsl(16.600000000000023, 49.3%, 75.7%)" stroke-width="1.5"></path><path d="M1604.62 675.35L1460.38 513.61" stroke="hsl(16.600000000000023, 49.3%, 75.7%)" stroke-width="1.5"></path><path d="M1604.62 675.35L1609.65 400.34" stroke="hsl(16.600000000000023, 49.3%, 75.7%)" stroke-width="1.5"></path><path d="M1604.62 675.35L1264.19 647.47" stroke="hsl(16.600000000000023, 49.3%, 75.7%)" stroke-width="1.5"></path><circle r="25" cx="-97.45" cy="677.12" fill="url(&quot;#SvgjsRadialGradient1088&quot;)"></circle><circle r="25" cx="60.39" cy="558" fill="url(&quot;#SvgjsRadialGradient1088&quot;)"></circle><circle r="25" cx="241.57" cy="500.73" fill="url(&quot;#SvgjsRadialGradient1088&quot;)"></circle><circle r="25" cx="1265.42" cy="259.03" fill="url(&quot;#SvgjsRadialGradient1088&quot;)"></circle><circle r="25" cx="1398.91" cy="-63.2" fill="url(&quot;#SvgjsRadialGradient1088&quot;)"></circle><circle r="25" cx="1443.73" cy="65.46" fill="url(&quot;#SvgjsRadialGradient1088&quot;)"></circle><circle r="25" cx="1460.38" cy="513.61" fill="url(&quot;#SvgjsRadialGradient1088&quot;)"></circle><circle r="25" cx="1458.23" cy="693.89" fill="url(&quot;#SvgjsRadialGradient1088&quot;)"></circle><circle r="5" cx="-83.9" cy="514.1" fill="#e4beb0"></circle><circle r="5" cx="98.14" cy="655.61" fill="#e4beb0"></circle><circle r="5" cx="216.97" cy="665.98" fill="#e4beb0"></circle><circle r="5" cx="385.09" cy="552.78" fill="#e4beb0"></circle><circle r="5" cx="398.38" cy="651.97" fill="#e4beb0"></circle><circle r="5" cx="533.87" cy="551.8" fill="#e4beb0"></circle><circle r="5" cx="530.86" cy="670.82" fill="#e4beb0"></circle><circle r="5" cx="711.12" cy="639.73" fill="#e4beb0"></circle><circle r="5" cx="832" cy="373.23" fill="#e4beb0"></circle><circle r="5" cx="798.57" cy="490.49" fill="#e4beb0"></circle><circle r="5" cx="805.99" cy="709.86" fill="#e4beb0"></circle><circle r="5" cx="957.94" cy="253.31" fill="#e4beb0"></circle><circle r="5" cx="943.18" cy="350.92" fill="#e4beb0"></circle><circle r="5" cx="999.79" cy="549.21" fill="#e4beb0"></circle><circle r="5" cx="1004.68" cy="704.29" fill="#e4beb0"></circle><circle r="5" cx="1094.43" cy="228.39" fill="#e4beb0"></circle><circle r="5" cx="1130.78" cy="368.15" fill="#e4beb0"></circle><circle r="5" cx="1130" cy="708.29" fill="#e4beb0"></circle><circle r="5" cx="1242.78" cy="-89.13" fill="#e4beb0"></circle><circle r="5" cx="1285.8" cy="101.44" fill="#e4beb0"></circle><circle r="5" cx="1298.7" cy="397.44" fill="#e4beb0"></circle><circle r="5" cx="1240.71" cy="498.01" fill="#e4beb0"></circle><circle r="5" cx="1264.19" cy="647.47" fill="#e4beb0"></circle><circle r="5" cx="1387.92" cy="196.21" fill="#e4beb0"></circle><circle r="5" cx="1460.29" cy="364.09" fill="#e4beb0"></circle><circle r="5" cx="1552.79" cy="-102.57" fill="#e4beb0"></circle><circle r="5" cx="1575.69" cy="101.2" fill="#e4beb0"></circle><circle r="5" cx="1541.73" cy="212.6" fill="#e4beb0"></circle><circle r="5" cx="1609.65" cy="400.34" fill="#e4beb0"></circle><circle r="5" cx="1585.16" cy="539.71" fill="#e4beb0"></circle><circle r="5" cx="1604.62" cy="675.35" fill="#e4beb0"></circle></g><defs><mask id="SvgjsMask1086"><rect width="1440" height="560" fill="#ffffff"></rect></mask><linearGradient x1="84.72%" y1="-39.29%" x2="15.28%" y2="139.29%" gradientUnits="userSpaceOnUse" id="SvgjsLinearGradient1087"><stop stop-color="#0e2a47" offset="0"></stop><stop stop-color="rgba(38, 35, 34, 1)" offset="1"></stop></linearGradient><radialGradient id="SvgjsRadialGradient1088"><stop stop-color="#ffffff" offset="0.1"></stop><stop stop-color="rgba(201, 125, 96, 1)" offset="0.2"></stop><stop stop-color="rgba(201, 125, 96, 0)" offset="1"></stop></radialGradient></defs></svg>