<svg xmlns="http://www.w3.org/2000/svg" version="1.1" xmlns:xlink="http://www.w3.org/1999/xlink" xmlns:svgjs="http://svgjs.dev/svgjs" width="1440" height="560" preserveAspectRatio="none" viewBox="0 0 1440 560"><g mask="url(&quot;#SvgjsMask1130&quot;)" fill="none"><rect width="1440" height="560" x="0" y="0" fill="url(&quot;#SvgjsLinearGradient1131&quot;)"></rect><path d="M977.191,247.459C999.496,245.637,1015.601,229.062,1027.456,210.081C1040.334,189.461,1052.618,165.508,1042.048,143.615C1030.4,119.489,1003.976,105.399,977.191,105.971C951.303,106.524,930.084,123.965,916.961,146.287C903.626,168.97,896.904,197.033,910.364,219.643C923.593,241.864,951.416,249.564,977.191,247.459" fill="rgba(28, 83, 142, 0.4)" class="triangle-float1"></path><path d="M1029.734,399.237C1061.958,399.367,1083.402,370.421,1100.178,342.908C1117.972,313.726,1137.775,279.324,1121.014,249.537C1104.078,219.439,1064.269,217.973,1029.734,217.714C994.544,217.45,953.185,217.411,936.052,248.15C919.136,278.5,941.961,312.812,960.271,342.342C977.176,369.605,997.655,399.107,1029.734,399.237" fill="rgba(28, 83, 142, 0.4)" class="triangle-float2"></path><path d="M468.572,517.818C514.747,514.682,553.974,486.517,576.409,446.037C598.117,406.869,597.182,361.082,577.82,320.703C554.988,273.086,521.358,222.647,468.572,221.139C414.179,219.585,374.737,266.771,347.948,314.135C321.679,360.581,304.793,416.724,331.983,462.637C358.801,507.922,416.063,521.384,468.572,517.818" fill="rgba(28, 83, 142, 0.4)" class="triangle-float2"></path><path d="M238.864,591.919C290.895,591.012,341.546,570.681,368.987,526.465C397.949,479.798,403.934,419.416,374.824,372.841C347.083,328.457,291.203,317.936,238.864,318.275C187.284,318.609,134.011,331.322,105.919,374.582C75.439,421.52,71.431,483.403,100.635,531.145C128.785,577.165,184.925,592.86,238.864,591.919" fill="rgba(28, 83, 142, 0.4)" class="triangle-float3"></path><path d="M59.615,660.477C105.552,658.442,138.703,620.021,159.087,578.804C176.995,542.595,177.367,500.002,155.906,465.78C135.683,433.533,97.678,420.239,59.615,420.187C21.446,420.135,-15.454,434.1,-37.128,465.519C-62.351,502.082,-76.133,548.559,-56.388,588.348C-34.695,632.064,10.861,662.637,59.615,660.477" fill="rgba(28, 83, 142, 0.4)" class="triangle-float2"></path><path d="M1068.05,460.966C1105.451,459.726,1126.685,422.673,1145.269,390.192C1163.668,358.034,1183.868,321.491,1166.608,288.707C1148.563,254.432,1106.782,243.072,1068.05,243.523C1030.225,243.963,992.11,258.087,973.389,290.957C954.827,323.547,963.174,362.858,981.419,395.626C1000.278,429.497,1029.304,462.251,1068.05,460.966" fill="rgba(28, 83, 142, 0.4)" class="triangle-float3"></path><path d="M1044.164,129.579C1063.264,127.917,1078.092,114.577,1087.43,97.833C1096.484,81.598,1099.857,62.161,1090.824,45.914C1081.559,29.25,1063.23,19.986,1044.164,20.015C1025.151,20.044,1008.403,30.308,997.752,46.057C985.371,64.364,974.803,87.382,985.538,106.701C996.459,126.354,1021.766,131.528,1044.164,129.579" fill="rgba(28, 83, 142, 0.4)" class="triangle-float2"></path><path d="M601.124,499.453C646.961,499.343,680.064,460.153,701.628,419.705C721.7,382.056,725.537,338.956,707.24,300.412C685.68,254.994,651.397,208.487,601.124,207.985C550.33,207.478,513.167,252.42,491.276,298.258C472.457,337.663,478.853,381.863,499.779,420.19C521.806,460.534,555.158,499.564,601.124,499.453" fill="rgba(28, 83, 142, 0.4)" class="triangle-float1"></path></g><defs><mask id="SvgjsMask1130"><rect width="1440" height="560" fill="#ffffff"></rect></mask><linearGradient x1="15.28%" y1="139.29%" x2="84.72%" y2="-39.29%" gradientUnits="userSpaceOnUse" id="SvgjsLinearGradient1131"><stop stop-color="rgba(206, 223, 217, 1)" offset="0.95"></stop><stop stop-color="rgba(235, 252, 251, 1)" offset="1"></stop></linearGradient><style>
                @keyframes float1 {
                    0%{transform: translate(0, 0)}
                    50%{transform: translate(-10px, 0)}
                    100%{transform: translate(0, 0)}
                }

                .triangle-float1 {
                    animation: float1 5s infinite;
                }

                @keyframes float2 {
                    0%{transform: translate(0, 0)}
                    50%{transform: translate(-5px, -5px)}
                    100%{transform: translate(0, 0)}
                }

                .triangle-float2 {
                    animation: float2 4s infinite;
                }

                @keyframes float3 {
                    0%{transform: translate(0, 0)}
                    50%{transform: translate(0, -10px)}
                    100%{transform: translate(0, 0)}
                }

                .triangle-float3 {
                    animation: float3 6s infinite;
                }
            </style></defs></svg>